# xmcd
#
# Track frame offsets:
#	150
#	14788
#	27147
#	41292
#	54828
#	69335
#	85642
#	98754
#	111484
#	123484
#	140392
#	155694
#	169237
#
# Disc length: 2440 seconds
#
# Revision: 0
# Processed by: cddbd v1.5.2PL0 Copyright (c) Steve Scherf et al.
# Submitted via: EasyCDDAExtractor 16.0.1.1
#
DISCID=a509860d
DTITLE=Karen Collins and The Backroads Band - Tail Light Blues
DYEAR=2007
DGENRE=Country
TTITLE0=Honky Tonk Guitar
TTITLE1=Highway Of Love
TTITLE2=Song Gone Wrong
TTITLE3=Hurricane
TTITLE4=Forgive My Heart For Breaking
TTITLE5=Half Moon Shuffle
TTITLE6=Sentimental Journey
TTITLE7=Only Mama That'll Walk The line
TTITLE8=Guitar Queen
TTITLE9=Heart Attack
TTITLE10=Rumors
TTITLE11=Feudin' And Fightin'
TTITLE12=Tail Light Blues
EXTD=
EXTT0=
EXTT1=
EXTT2=
EXTT3=
EXTT4=
EXTT5=
EXTT6=
EXTT7=
EXTT8=
EXTT9=
EXTT10=
EXTT11=
EXTT12=
PLAYORDER=
